<?xml version="1.0" encoding="utf-8"?>
<!-- Generator: Adobe Illustrator 24.0.1, SVG Export Plug-In . SVG Version: 6.00 Build 0)  -->
<svg version="1.1" id="Camada_1" xmlns="http://www.w3.org/2000/svg" xmlns:xlink="http://www.w3.org/1999/xlink" x="0px" y="0px"
	 viewBox="0 0 8192 5669.29" style="enable-background:new 0 0 8192 5669.29;" xml:space="preserve">
<style type="text/css">
	.st0{fill:#07546C;}
	.st1{enable-background:new    ;}
</style>
<g>
	<g>
		<path class="st0" d="M4174.95,2929.14c0.92,46.35,4.58,54.06,34.79,61.79l-1.83,4.29H4013.8l-0.92-4.29
			c29.3-7.73,42.12-15.45,42.12-61.79v-199.97c0-62.64-6.41-102.99-38.46-102.99c-50.36,0.86-62.27,74.67-62.27,109.85v193.1
			c0,46.35,5.49,54.06,33.88,61.79l-0.92,4.29h-194.13l-0.92-4.29c30.22-7.73,43.04-15.45,43.04-61.79v-199.97
			c0-62.64-7.33-102.99-39.37-102.99c-38.46,0-63.18,50.63-63.18,109.85v193.1c0,46.35,13.74,54.93,42.12,61.79l-0.92,4.29h-193.2
			l-0.92-4.29c28.39-6.87,33.88-15.45,33.88-61.79v-224.85c0-46.35-13.74-54.93-42.12-60.93l0.92-5.15l160.24-37.76v58.36
			c15.57-32.61,43.96-58.36,96.15-58.36c57.68,0,100.72,19.74,117.21,78.1c12.82-42.05,41.21-78.1,103.47-78.1
			c73.25,0,123.61,35.19,125.44,139.03L4174.95,2929.14L4174.95,2929.14z"/>
		<path class="st0" d="M4398.4,2929.14c0,27.58,1.95,41.79,9.51,50.22c7.26,8.1,20.34,10.54,20.34,10.54
			c1.67,0.49,3.07,0.82,4.04,1.03c-0.61,1.43-1.22,2.86-1.83,4.29h-184.05l-0.92-4.29c28.39-6.87,33.88-15.45,33.88-61.79v-224.85
			c0-46.35-13.74-54.93-42.12-60.93l0.92-5.15l160.24-37.76L4398.4,2929.14L4398.4,2929.14z"/>
		<path class="st0" d="M4327.03,2518.2c38.6,1.88,64.54-19.85,69.87-24.53c2.39,4.45,6.62,13.8,6.07,25.95
			c-0.65,14.25-7.48,24.03-10.89,28.77c-20.54,28.58-59.8,29.56-62.38,29.58c-22.24,0.22-53.77-8.54-66.16-32.55
			c-5.98-11.6-6.17-24.19-6.18-25.81c-0.07-13.39,4.51-23.4,7.04-28.09C4270.24,2497,4292.47,2516.51,4327.03,2518.2z"/>
		<path class="st0" d="M5317.68,2518.2c38.6,1.88,64.54-19.85,69.87-24.53c2.39,4.45,6.62,13.8,6.07,25.95
			c-0.65,14.25-7.48,24.03-10.89,28.77c-20.54,28.58-59.8,29.56-62.38,29.58c-22.24,0.22-53.77-8.54-66.16-32.55
			c-5.98-11.6-6.18-24.19-6.18-25.81c-0.07-13.39,4.51-23.4,7.04-28.09C5260.89,2497,5283.13,2516.51,5317.68,2518.2z"/>
		<path class="st0" d="M4754.52,2718.01c-34.74,1.93-56.99,22.07-62.82,27.7c-9.17-14.07-10.07-24.87-9.32-31.96
			c3.57-33.68,51.28-49.26,51.28-78.95c0-14.58-8.25-22.31-25.64-22.31c-52.19,0-76.01,60.93-77.84,117.57v199.11
			c0,46.35,21.97,54.93,50.36,61.79l-0.92,4.29h-201.45l-0.92-4.29c28.39-6.87,33.88-15.45,33.88-61.79v-224.85
			c0-46.35-13.74-54.93-42.12-60.93l0.92-5.15l160.24-37.76v63.51c13.74-36.05,40.29-63.51,96.15-63.51
			c26.97,0,54.25,6.3,72.84,25.51c21.41,22.14,23.38,50.22,23.38,61.54c0,1.97-0.08,3.92-0.08,3.92
			c-0.78,18.12-7.11,31.89-12.21,40.53C4802.53,2727.29,4782.13,2716.48,4754.52,2718.01z"/>
		<path class="st0" d="M5143.51,2725.36c3.82,17.53,2.03,27.84,2.03,60.04c0,21.2,0,42.4,0,63.6c0,20.7,0,41.41,0,62.11
			c0,36.9,1.83,56.64,18.31,57.5c29.3,0,27.47-73.8,27.47-73.8h10.08c0,43.77-4.58,108.13-88.82,108.13
			c-48.53,0-68.67-30.89-73.25-73.8c-12.82,41.19-43.96,73.8-113.55,73.8c-78.75,0-123.61-53.2-123.61-116.72
			c-0.92-160.48,236.24-111.56,236.24-174.22c-1.83-75.52-24.72-103.85-70.51-103.85c-17.4,0-52.19,5.15-52.19,19.74
			c0,13.73,44.87,8.58,44.87,51.49c0,30.67-39.26,56.96-72.34,64.37c-25.85,5.79-48.33,0.07-61.69-4.85
			c4.93-7.16,16.15-25.52,16.26-51.11c0.08-17-4.78-30.27-8.26-37.83c22.48-16.51,72.99-48.32,141.56-48.67
			c10.85-0.06,33.88,0.71,61.71,10.67c33.8,12.1,54.82,30.97,60.55,36.33c16.37,15.29,26.53,30.94,32.53,41.82
			C5134.8,2697.79,5140.13,2709.86,5143.51,2725.36z M4931.27,2843.32v70.37c0.92,39.48,9.15,62.64,38.46,62.64
			c50.36,0,66.84-52.35,68.67-123.58v-116.72C5010.94,2762.65,4931.27,2756.64,4931.27,2843.32z"/>
		<path class="st0" d="M5390.94,2929.14c0,46.35,5.49,54.93,33.88,61.79l-1.83,4.29h-184.05l-0.92-4.29
			c28.39-6.87,33.88-15.45,33.88-61.79v-224.85c0-46.35-13.74-54.93-42.12-60.93l0.92-5.15l160.25-37.76L5390.94,2929.14
			L5390.94,2929.14z"/>
	</g>
</g>
<g>
	<g>
		<path class="st0" d="M3218.16,2700.11c4.77-10.66,9.21-21.46,13.26-32.43c4.03-10.99,7.76-22.11,10.54-33.66
			c-6.76,9.77-12.56,19.96-18.08,30.29c-5.47,10.35-10.58,20.86-15.35,31.51c-4.78,10.65-9.22,21.46-13.28,32.43
			c-4.03,10.99-7.76,22.11-10.53,33.67c6.77-9.76,12.58-19.95,18.09-30.28C3208.29,2721.29,3213.4,2710.78,3218.16,2700.11z"/>
		<path class="st0" d="M3089.18,2663.42c2.38-15.76,4.41-31.58,6.03-47.44c1.58-15.89,2.84-31.81,3.07-47.9
			c-4.55,15.43-8.05,31.02-11.24,46.65c-3.15,15.64-5.9,31.35-8.28,47.11c-2.4,15.76-4.42,31.57-6.05,47.44
			c-1.58,15.89-2.84,31.81-3.06,47.9c4.56-15.43,8.07-31.02,11.26-46.65C3084.05,2694.88,3086.8,2679.18,3089.18,2663.42z"/>
		<path class="st0" d="M3303.93,2824.86c4.07-3.67,7.83-7.61,11.3-11.79c3.48-4.17,6.68-8.57,9.56-13.24
			c2.85-4.69,5.46-9.58,7.26-15.15c-5.15,2.77-9.51,6.21-13.61,9.86c-4.07,3.67-7.83,7.61-11.31,11.78
			c-3.49,4.16-6.69,8.56-9.58,13.23c-2.85,4.69-5.46,9.58-7.25,15.16C3295.48,2831.95,3299.84,2828.51,3303.93,2824.86z"/>
		<path class="st0" d="M3322.29,2936.01c-2.88,1.91-5.56,4.13-8.01,6.69c-2.43,2.59-4.67,5.45-6.33,9.2
			c4.09-0.09,7.6-1.06,10.92-2.3c3.3-1.27,6.39-2.89,9.26-4.82c2.87-1.92,5.55-4.14,8-6.7c2.43-2.59,4.67-5.45,6.34-9.19
			c-4.08,0.1-7.59,1.07-10.92,2.31C3328.24,2932.48,3325.17,2934.1,3322.29,2936.01z"/>
		<path class="st0" d="M3150.87,3117c13.31,6.04,27.48,10.03,41.84,12.39c14.41,2.1,29,2.68,43.47,1.58
			c3.62-0.27,7.23-0.7,10.82-1.18c3.56-0.5,7.16-1.2,10.73-1.79c3.56-0.7,7.09-1.58,10.63-2.4c3.47-1.07,6.98-1.98,10.4-3.17
			c27.5-9.19,52.43-25.22,72.07-45.85c-22.11,17.92-47.24,31.65-74.09,39.3c-13.41,3.8-27.2,6.08-41.11,6.79
			c-6.95,0.38-13.91,0.45-20.86,0.14c-6.95-0.29-13.85-1.09-20.71-2.09c-13.71-2.09-27.13-5.85-39.82-11.3
			c-4.26-1.85-8.46-3.85-12.55-6.06l223.51-143.06c0.13-0.09,0.26-0.17,0.39-0.27l0,0l0.01-0.01c0.01,0,0.01-0.01,0.02-0.01
			c0,0,0,0,0.01,0c26.97-17.76,25.57-60.69,25.49-62.51c0-0.03-0.01-0.05-0.01-0.08c0-0.02,0-0.04,0-0.06
			c-1.58-24.25-7.83-58.9-28.16-88.61c0.13-0.16,0.26-0.32,0.38-0.49c11.29-16.23,14.27-34.91,8.84-55.54
			c-11.54-43.93-59.2-85.56-90.77-102.37l1.73-3.69c0-0.01,0.01-0.01,0.01-0.02c0.08-0.13,0.14-0.27,0.21-0.41
			c10.66-23.5-16.25-48.72-20.24-52.26c-0.26-0.26-0.55-0.49-0.86-0.69c-20.1-12.99-61.15-35.06-113.84-40.05
			c-0.77-9.61-6.72-29.98-41.9-38.73c-0.42-0.22-0.87-0.4-1.36-0.5c-47.55-9.65-98.51-9.58-145.85,0.18
			c-0.03,0.01-0.05,0.02-0.07,0.02c-0.03,0.01-0.05,0-0.08,0.01c-35.63,8.4-42.11,28.56-43.06,38.5
			c-58.27,5.15-98.05,29.31-112.7,39.69c-16.19,11.49-31.46,32.62-21.23,54.33l1.47,3.15c-35.32,17.9-63.12,43.8-82.64,77.07
			c-0.13,0.18-0.27,0.37-0.39,0.57c-12.21,22.56-17.98,55.39,1.71,80.81c-20.11,29.41-26.45,63.73-28.14,88.06
			c-0.04,0.26-0.08,0.52-0.08,0.79v0.42c-0.11,4.99-0.15,45.58,25.92,62.34l221.98,142.31c-1.73,0.67-3.48,1.32-5.24,1.93
			c-16.37,5.84-33.65,8.96-51.13,10.45c-4.37,0.38-8.77,0.68-13.18,0.91l-6.65,0.32l-6.58,0.14c-2.2,0.02-4.38,0.14-6.58,0.09
			l-6.58-0.16l-3.29-0.06l-3.28-0.2l-6.58-0.42c-35.06-2.93-69.54-12.93-101.6-28.54c30.32,18.82,65.04,31.05,100.92,35.34
			c8.97,0.98,18,1.73,27.06,1.64h6.78l6.71-0.16c4.49-0.12,8.99-0.33,13.5-0.62c18.02-1.24,36.11-4.45,53.4-10.43
			c3.81-1.33,7.57-2.85,11.27-4.48l98.38,63.06c0.87,0.56,1.86,0.84,2.85,0.84c0.96,0,1.93-0.26,2.77-0.79l24.87-15.39l74.43-47.6
			C3139.59,3111.4,3145.19,3114.34,3150.87,3117z M3359.7,2951.26c-0.13,0.08-0.24,0.16-0.36,0.26l0,0l-226.3,144.85
			c-6.13-4.25-12.53-8.13-19.2-11.56l241.87-267.97c17.81,27.22,23.39,58.78,24.85,81.1
			C3380.6,2898.95,3381.61,2936.96,3359.7,2951.26z M3361.95,2755.4c4.61,17.56,2.12,33.38-7.42,46.99l-250.66,277.7
			c-6.85-3-13.89-5.57-21.02-7.68l80.83-171.81l79.87-169.87l31.62-67.22l1.71-3.62C3306.67,2675.83,3351.26,2714.7,3361.95,2755.4z
			 M3273.84,2641.64c-0.03,0.06-0.06,0.12-0.09,0.17c-0.04,0.07-0.08,0.14-0.11,0.21l-3.95,8.39c-0.01,0.02-0.03,0.04-0.04,0.06
			l-197.16,419.2c-5.23-1.21-10.67-2.21-16.27-2.98l91.18-502.99c50.12,4.74,89.3,25.67,108.72,38.16
			C3258.4,2603.94,3281.02,2625.15,3273.84,2641.64z M2961.51,2524.47c45.55-9.38,94.58-9.51,140.39-0.38
			c0.3,0.13,0.62,0.25,0.95,0.33c36.6,8.66,35.36,29.76,35.1,32.13l-0.01,0.04c-0.02,0.09-0.03,0.18-0.04,0.27l-0.05,0.4
			l-92.15,508.35c-4.72-0.34-8.97-0.5-13.09-0.5c-4.08,0-8.42,0.16-13.13,0.5l-92.98-508.89
			C2926.33,2555.4,2923.95,2533.35,2961.51,2524.47z M2809.5,2600.98c13.93-9.86,51.79-32.86,107.48-37.79l92,503.51
			c-5.51,0.73-10.92,1.71-16.2,2.94l-197.38-419.59l-0.02-0.04l0,0l0,0l-3.64-7.78C2781.89,2621.37,2806.65,2603,2809.5,2600.98z
			 M2709.52,2733.23c0.09-0.13,0.17-0.27,0.24-0.4c18.45-31.67,44.8-56.34,78.36-73.4l194.27,412.96
			c-7.14,2.09-14.17,4.67-21.01,7.7l-248.62-275.44c-0.12-0.13-0.25-0.21-0.37-0.33c-0.18-0.4-0.4-0.79-0.7-1.15
			C2689.76,2776.61,2703.97,2743.75,2709.52,2733.23z M2684.65,2897.85c1.47-22.38,7.02-53.97,24.74-81.2l242.02,268.12
			c-6.71,3.46-13.13,7.3-19.15,11.5l-226.53-145.23C2684.33,2937.32,2684.6,2900.56,2684.65,2897.85z M3054.23,3146.76l-21.98,13.6
			l-90.2-57.82c0.88-0.47,1.75-0.92,2.62-1.4c4.01-2.11,7.83-4.61,11.54-6.95c1.98-1.02,3.99-2.03,6.03-2.98c0,0,0.01,0,0.01-0.01
			h0.01c9.29-4.36,19-7.83,28.85-10.31c0.01,0,0.02-0.01,0.03-0.01c0.01,0,0.01,0,0.02,0c7.86-2.05,16.12-3.52,24.55-4.36
			c0.09-0.01,0.17-0.04,0.26-0.06c6.17-0.55,11.63-0.83,16.67-0.83c5.14,0,10.51,0.27,16.91,0.85c8.62,0.92,16.89,2.42,24.58,4.42
			h0.01c0,0,0.01,0,0.01,0.01c9.85,2.53,19.57,6,28.89,10.33c0.09,0.04,0.17,0.05,0.25,0.09c6.96,3.25,13.71,7,20.12,11.19
			L3054.23,3146.76z"/>
		<path class="st0" d="M3407.56,3167.12c-14.07,9.63-29.28,17.55-45.31,22.66c-8.01,2.53-16.23,4.33-24.53,5.34
			c-8.29,0.98-16.68,1.09-24.97,0.35c-8.29-0.73-16.53-2.23-24.62-4.46c-8.09-2.24-16.04-5.13-23.94-8.31
			c-15.84-6.23-31.49-13.75-48.1-19.42c-16.56-5.66-34.14-9.45-51.83-9.34c-17.67-0.09-35.18,3.22-51.61,9.12
			c-16.42,5.97-31.78,14.47-45.51,24.92c14.81-8.85,30.46-16.15,46.84-20.85c8.17-2.39,16.48-4.19,24.88-5.22
			c8.4-1.04,16.85-1.52,25.26-1.15c8.41,0.36,16.75,1.47,24.97,3.21c8.23,1.75,16.3,4.24,24.25,7.14
			c15.95,5.74,31.42,13.19,47.59,19.75c8.1,3.21,16.41,6.15,24.95,8.44c8.54,2.26,17.34,3.88,26.22,4.47
			c17.76,1.16,35.77-1.36,52.34-7.48c16.66-5.94,31.9-15.02,45.65-25.66c13.74-10.7,26.18-22.88,37.26-36.11
			C3434.86,3146.39,3421.74,3157.58,3407.56,3167.12z"/>
		<path class="st0" d="M2722.62,3051.85c5.19,1.01,10.41,1.97,15.55,3.34c20.56,5.39,40.37,14.11,58.68,25.84
			c-8.01-7.38-17.03-13.68-26.55-19.13c-9.57-5.39-19.68-9.89-30.2-13.28c-10.49-3.5-21.4-5.84-32.45-6.94l-4.14-0.46l-4.16-0.19
			c-2.77-0.09-5.55-0.35-8.33-0.29l-8.33,0.22l-2.08,0.07l-2.07,0.2l-4.15,0.41c-11.09,0.94-21.98,3.51-32.59,6.75l-7.86,2.74
			c-2.62,0.92-5.12,2.14-7.68,3.2l-3.81,1.65l-3.7,1.88l-3.69,1.91l-1.84,0.95l-1.78,1.05c-9.67,5.36-18.61,11.9-26.94,19.04
			c-8.26,7.22-15.88,15.17-22.27,23.98c7.85-7.52,16.12-14.47,24.92-20.61c2.23-1.49,4.36-3.1,6.64-4.52
			c2.27-1.41,4.5-2.88,6.8-4.24c2.33-1.3,4.63-2.64,6.94-3.98l7.1-3.64c9.6-4.55,19.43-8.57,29.6-11.46
			c10.18-2.78,20.52-5.11,31.05-5.96c10.48-1.25,21.09-1.19,31.62-0.41c2.63,0.26,5.28,0.35,7.89,0.76L2722.62,3051.85z"/>
	</g>
</g>
<g>
	<g>
		<path class="st0" d="M3750.57,3134.57c0-1.7,0.77-2.54,2.32-2.54h50.91c0.92,0,1.57,0.26,1.96,0.77c0.39,0.51,0.58,1.16,0.58,1.94
			v9.33c0,0.64-0.22,1.2-0.66,1.7c-0.44,0.49-1.11,0.74-1.98,0.74h-37.56v16h28.95c0.7-0.07,1.27,0.09,1.7,0.45
			c0.42,0.38,0.64,0.99,0.64,1.88v9.56c0,0.64-0.18,1.19-0.52,1.7c-0.36,0.49-0.92,0.74-1.7,0.74h-29.05V3196h38.93
			c0.98,0,1.64,0.21,1.96,0.64c0.32,0.42,0.47,1.08,0.47,1.96v9.65c0,1.48-0.77,2.23-2.32,2.23h-52.29c-0.64,0-1.18-0.17-1.65-0.53
			c-0.45-0.35-0.68-0.92-0.68-1.69L3750.57,3134.57L3750.57,3134.57z"/>
		<path class="st0" d="M3831.53,3134.36c0-0.64,0.21-1.18,0.64-1.64s1.01-0.69,1.79-0.69h10.48c0.63,0,1.18,0.21,1.66,0.61
			c0.47,0.4,0.71,0.98,0.71,1.71v61.63h33.06c0.63,0,1.18,0.22,1.64,0.66s0.68,1.03,0.68,1.76v9.67c0,0.63-0.2,1.18-0.63,1.67
			c-0.42,0.47-0.98,0.71-1.7,0.71h-46.01c-1.54,0-2.32-0.77-2.32-2.32L3831.53,3134.36L3831.53,3134.36z"/>
		<path class="st0" d="M3904.16,3134.57c0-1.7,0.77-2.54,2.32-2.54h50.91c0.92,0,1.57,0.26,1.96,0.77c0.39,0.51,0.58,1.16,0.58,1.94
			v9.33c0,0.64-0.22,1.2-0.66,1.7c-0.44,0.49-1.11,0.74-1.98,0.74h-37.56v16h28.95c0.7-0.07,1.27,0.09,1.7,0.45
			c0.42,0.38,0.64,0.99,0.64,1.88v9.56c0,0.64-0.18,1.19-0.52,1.7c-0.36,0.49-0.92,0.74-1.69,0.74h-29.05V3196h38.93
			c0.98,0,1.64,0.21,1.96,0.64c0.32,0.42,0.47,1.08,0.47,1.96v9.65c0,1.48-0.77,2.23-2.32,2.23h-52.29c-0.64,0-1.18-0.17-1.65-0.53
			c-0.45-0.35-0.68-0.92-0.68-1.69L3904.16,3134.57L3904.16,3134.57z"/>
		<path class="st0" d="M4033.81,3177.66c0-0.7,0.19-1.26,0.58-1.69c0.39-0.42,0.97-0.64,1.74-0.64h8.6c0.6,0,1.17,0.21,1.7,0.64
			c0.53,0.42,0.79,0.98,0.79,1.69v24.25c0,0.42-0.11,0.83-0.32,1.21c-0.2,0.39-0.6,0.76-1.16,1.11c-0.04,0-0.06,0.01-0.06,0.03
			c0,0.01-0.01,0.03-0.05,0.03c-1.66,1.16-3.44,2.21-5.34,3.11c-1.91,0.92-3.89,1.69-5.97,2.3c-2.08,0.62-4.21,1.09-6.39,1.43
			c-2.19,0.33-4.36,0.5-6.55,0.5c-3.7,0-7.27-0.47-10.72-1.43c-3.45-0.95-6.66-2.3-9.64-4.07c-2.98-1.76-5.68-3.85-8.13-6.31
			c-2.45-2.45-4.56-5.15-6.32-8.14c-1.76-2.98-3.11-6.17-4.07-9.61c-0.95-3.43-1.43-7.01-1.43-10.74c0-3.7,0.47-7.26,1.43-10.69
			c0.95-3.43,2.3-6.65,4.07-9.63c1.76-3,3.86-5.72,6.32-8.19c2.45-2.47,5.17-4.58,8.16-6.34c3-1.76,6.21-3.13,9.64-4.09
			c3.43-0.96,7.02-1.45,10.74-1.45c2.5,0,5,0.22,7.48,0.66c2.49,0.44,4.88,1.11,7.22,1.98c0.88,0.36,1.93,0.79,3.14,1.32
			c1.21,0.53,2.37,1.11,3.47,1.74c1.09,0.64,2.01,1.28,2.76,1.96c0.76,0.66,1.14,1.33,1.14,1.96c0,0.28-0.16,0.73-0.47,1.35
			c-0.32,0.62-0.71,1.31-1.18,2.08c-0.47,0.77-1.01,1.57-1.62,2.4c-0.6,0.83-1.18,1.57-1.74,2.24c-0.57,0.67-1.08,1.23-1.53,1.67
			c-0.45,0.44-0.81,0.66-1.06,0.66c-0.21,0-0.47-0.04-0.76-0.13c-0.31-0.09-0.61-0.26-0.92-0.5c-2.22-1.54-4.72-2.78-7.5-3.7
			c-2.78-0.92-5.62-1.38-8.51-1.38c-3.77,0-7.22,0.71-10.36,2.12c-3.13,1.41-5.83,3.3-8.08,5.7c-2.25,2.4-4.01,5.17-5.28,8.31
			c-1.27,3.15-1.91,6.47-1.91,9.96c0,3.59,0.68,6.96,2.03,10.11c1.35,3.15,3.19,5.9,5.49,8.24s5.01,4.19,8.11,5.54
			c3.1,1.36,6.39,2.03,9.87,2.03c1.3,0,2.59-0.1,3.85-0.29c1.27-0.19,2.46-0.44,3.56-0.74c1.11-0.31,2.11-0.64,2.99-1.01
			c0.89-0.37,1.61-0.73,2.17-1.08v-16.47H4033.81z"/>
		<path class="st0" d="M4069.52,3208.5c0.18-0.7,0.38-1.36,0.61-1.96c0.23-0.6,0.43-1.15,0.61-1.65l28.47-70.88
			c0.11-0.39,0.4-0.82,0.87-1.29c0.47-0.47,1.12-0.72,1.94-0.72h8.51c0.84,0,1.44,0.21,1.82,0.64c0.38,0.42,0.65,0.79,0.82,1.11
			l1.74,4.12l27.89,69.76c0,0.11,0.03,0.29,0.08,0.56c0.06,0.26,0.09,0.48,0.09,0.66c0,1.06-0.77,1.59-2.32,1.59h-10.4
			c-0.78,0-1.38-0.15-1.8-0.47c-0.42-0.32-0.77-0.81-1.06-1.47l-0.94-2.43c-0.66-1.7-1.34-3.38-2-5.08
			c-0.66-1.7-1.33-3.39-1.96-5.13h-32.59c-0.92,2.47-1.81,4.78-2.67,6.95s-1.6,4.06-2.19,5.68c-0.5,1.3-1.42,1.96-2.75,1.96h-10.57
			c-0.66,0-1.2-0.13-1.61-0.38c-0.4-0.24-0.61-0.62-0.61-1.11C4069.47,3208.77,4069.49,3208.61,4069.52,3208.5z M4105.43,3106.05
			c0.36-0.32,0.74-0.47,1.17-0.47c0.32,0,0.67,0.15,1.06,0.47l13.88,13.83c0.28,0.18,0.42,0.58,0.42,1.21c0,0.36-0.16,0.69-0.47,1
			l-3.01,3.12c-0.71,0.77-1.36,1.16-1.96,1.16c-0.28,0-0.58-0.1-0.9-0.29s-0.64-0.45-0.94-0.77l-8.08-8.02l-8.87,8.66
			c-0.25,0.21-0.55,0.32-0.9,0.32c-0.36,0-0.71-0.09-1.08-0.26c-0.38-0.18-0.67-0.44-0.92-0.79l-3.12-2.96
			c-0.17-0.17-0.29-0.36-0.34-0.52c-0.06-0.18-0.1-0.39-0.14-0.64c0-0.57,0.16-0.95,0.47-1.16L4105.43,3106.05z M4106.28,3152.15
			c-1.91,4.86-3.8,9.89-5.68,15.1c-1.89,5.21-3.78,10.23-5.68,15.06h22.5L4106.28,3152.15z"/>
		<path class="st0" d="M4165.54,3134.41c0-0.66,0.2-1.23,0.61-1.7c0.4-0.46,0.98-0.69,1.71-0.69h12.15c0.5,0,0.96,0.12,1.4,0.35
			c0.44,0.23,0.84,0.59,1.19,1.08c6.02,8.59,11.99,17.12,17.91,25.59c5.92,8.47,11.89,17,17.9,25.59v-50.6
			c0.11-0.64,0.38-1.13,0.79-1.47c0.42-0.36,0.93-0.53,1.53-0.53h10.19c0.7,0,1.31,0.21,1.82,0.64s0.77,0.98,0.77,1.7v73.94
			c0,1.45-0.83,2.17-2.49,2.17h-11.45c-0.78,0-1.49-0.47-2.17-1.43c-6.19-8.98-12.37-17.95-18.52-26.91s-12.3-17.95-18.46-26.96
			v52.97c0,0.78-0.18,1.36-0.56,1.74c-0.37,0.39-0.99,0.58-1.87,0.58h-10.14c-0.81,0-1.4-0.2-1.76-0.61
			c-0.38-0.4-0.56-0.96-0.56-1.67v-73.77H4165.54z"/>
		<path class="st0" d="M4320.88,3137.74c0.42,0.24,0.77,0.55,1.06,0.9c0.28,0.36,0.42,0.77,0.42,1.27c0,0.39-0.11,0.79-0.32,1.21
			l-5.12,8.71c-0.6,0.82-1.23,1.21-1.9,1.21c-0.21,0-0.46-0.04-0.74-0.13c-0.28-0.09-0.57-0.22-0.85-0.39
			c-2.22-1.59-4.59-2.81-7.13-3.7c-2.53-0.88-5.23-1.32-8.08-1.32c-3.59,0-6.88,0.67-9.87,2.03c-3,1.36-5.59,3.2-7.76,5.52
			c-2.18,2.32-3.88,5.05-5.1,8.19c-1.21,3.14-1.82,6.5-1.82,10.09c0,3.55,0.61,6.9,1.82,10.01c1.21,3.12,2.92,5.84,5.1,8.17
			c2.18,2.32,4.77,4.15,7.76,5.49c3,1.34,6.29,2,9.87,2c2.85,0,5.57-0.43,8.16-1.32c2.59-0.88,4.98-2.11,7.16-3.7
			c0.28-0.21,0.57-0.36,0.88-0.42c0.3-0.07,0.55-0.13,0.77-0.15c0.6,0,1.21,0.39,1.85,1.17l5.22,8.82c0.21,0.42,0.32,0.81,0.32,1.16
			c0,0.5-0.15,0.9-0.45,1.21c-0.3,0.32-0.65,0.62-1.03,0.9c-3.31,2.23-6.88,3.93-10.69,5.14c-3.82,1.21-7.84,1.82-12.07,1.82
			c-3.73,0-7.31-0.47-10.74-1.43s-6.65-2.3-9.64-4.07c-2.99-1.76-5.71-3.85-8.16-6.31c-2.45-2.45-4.56-5.15-6.32-8.14
			c-1.76-2.98-3.11-6.17-4.07-9.61c-0.95-3.43-1.43-7.01-1.43-10.74c0-3.73,0.47-7.31,1.43-10.74c0.95-3.44,2.3-6.66,4.07-9.67
			c1.76-3.01,3.86-5.75,6.32-8.22c2.45-2.47,5.17-4.57,8.16-6.31c3-1.74,6.21-3.1,9.64-4.07c3.43-0.96,7.02-1.45,10.74-1.45
			c4.2,0,8.17,0.59,11.94,1.76C4314.03,3133.79,4317.56,3135.51,4320.88,3137.74z"/>
		<path class="st0" d="M4348.01,3134.36c0-0.64,0.19-1.18,0.58-1.64s0.96-0.69,1.74-0.69h10.48c0.6,0,1.16,0.21,1.69,0.64
			c0.52,0.42,0.79,0.98,0.79,1.7v73.78c0,1.55-0.82,2.32-2.47,2.32h-10.48c-1.54,0-2.32-0.77-2.32-2.32L4348.01,3134.36
			L4348.01,3134.36z"/>
		<path class="st0" d="M4386.36,3208.5c0.18-0.7,0.38-1.36,0.61-1.96c0.23-0.6,0.43-1.15,0.61-1.65l28.47-70.88
			c0.11-0.39,0.4-0.82,0.87-1.29c0.47-0.47,1.12-0.72,1.94-0.72h8.51c0.84,0,1.45,0.21,1.82,0.64c0.38,0.42,0.65,0.79,0.82,1.11
			l1.74,4.12l27.89,69.76c0,0.11,0.03,0.29,0.08,0.56c0.06,0.26,0.09,0.48,0.09,0.66c0,1.06-0.77,1.59-2.32,1.59h-10.4
			c-0.78,0-1.38-0.15-1.8-0.47c-0.42-0.32-0.77-0.81-1.06-1.47l-0.94-2.43c-0.67-1.7-1.34-3.38-2-5.08
			c-0.66-1.7-1.33-3.39-1.96-5.13h-32.59c-0.92,2.47-1.81,4.78-2.67,6.95s-1.59,4.06-2.19,5.68c-0.5,1.3-1.42,1.96-2.75,1.96h-10.57
			c-0.66,0-1.2-0.13-1.61-0.38c-0.4-0.24-0.61-0.62-0.61-1.11C4386.31,3208.77,4386.33,3208.61,4386.36,3208.5z M4423.13,3152.15
			c-1.91,4.86-3.8,9.89-5.68,15.1c-1.89,5.21-3.78,10.23-5.68,15.06h22.5L4423.13,3152.15z"/>
		<path class="st0" d="M4481.64,3199c0-0.92,0.31-1.53,0.9-1.85c0.6-0.31,1.41-0.47,2.43-0.47h7.66c0.39,0,0.79,0.02,1.18,0.08
			c0.4,0.06,0.79,0.15,1.14,0.32c0.35,0.16,0.64,0.4,0.84,0.71c0.21,0.32,0.32,0.72,0.32,1.21v10.36c0,3.17-0.6,6.1-1.79,8.79
			c-1.19,2.69-3.11,4.83-5.76,6.42c-0.28,0.21-0.5,0.34-0.64,0.38h-0.38c-0.63,0-1.09-0.14-1.38-0.42
			c-0.21-0.11-0.52-0.33-0.94-0.66c-0.42-0.33-0.84-0.7-1.24-1.11c-0.4-0.4-0.77-0.82-1.09-1.24c-0.32-0.42-0.47-0.77-0.47-1.06
			c0-0.39,0.19-0.78,0.58-1.18s0.82-0.87,1.3-1.4c0.47-0.52,0.91-1.13,1.29-1.79c0.39-0.67,0.58-1.47,0.58-2.43v-2.06
			c0-0.64-0.31-1.01-0.94-1.11h-0.74c-0.89,0-1.58-0.13-2.09-0.42c-0.51-0.29-0.77-0.83-0.77-1.64V3199H4481.64z"/>
		<path class="st0" d="M4612.73,3152.95c-0.46,0-0.89-0.12-1.27-0.35s-0.83-0.54-1.32-0.92l-0.11-0.06
			c-0.67-0.66-1.53-1.41-2.59-2.22c-1.06-0.81-2.23-1.57-3.54-2.27c-1.3-0.7-2.71-1.3-4.2-1.79c-1.49-0.5-3.02-0.74-4.57-0.74
			c-1.97,0-3.71,0.22-5.22,0.66c-1.52,0.44-2.78,1.04-3.81,1.8c-1.02,0.75-1.79,1.65-2.32,2.67c-0.53,1.02-0.79,2.11-0.79,3.28
			c0,1.27,0.4,2.38,1.18,3.33c0.79,0.94,1.87,1.79,3.23,2.53c1.35,0.74,2.91,1.42,4.67,2.03c1.76,0.62,3.61,1.22,5.55,1.82
			c2.22,0.66,4.41,1.39,6.6,2.16c2.19,0.78,4.27,1.65,6.26,2.62c1.99,0.97,3.85,2.04,5.58,3.23c1.72,1.18,3.21,2.53,4.46,4.07
			c1.25,1.53,2.23,3.25,2.96,5.12c0.72,1.89,1.09,4.01,1.09,6.37c0,3.83-0.77,7.31-2.32,10.4c-1.54,3.1-3.69,5.75-6.42,7.95
			c-2.73,2.21-5.92,3.89-9.61,5.08c-3.68,1.18-7.63,1.76-11.86,1.76c-2.72,0-5.4-0.32-8.08-0.94c-2.67-0.64-5.24-1.53-7.71-2.7
			c-2.47-1.16-4.8-2.56-6.99-4.2c-2.21-1.64-4.16-3.48-5.89-5.52v0.06l-0.11-0.21c-0.77-0.88-1.16-1.7-1.16-2.43
			c0-0.39,0.11-0.75,0.32-1.11c0.21-0.35,0.53-0.74,0.95-1.16l1.74-1.74c0.53-0.46,1.09-0.97,1.7-1.53c0.6-0.57,1.2-1.08,1.79-1.53
			c0.6-0.46,1.16-0.85,1.67-1.17c0.51-0.32,0.92-0.47,1.24-0.47c0.5,0,0.95,0.15,1.38,0.47c0.42,0.32,0.77,0.62,1.06,0.9l0.21,0.21
			h-0.06c1.23,1.16,2.61,2.27,4.15,3.32c1.53,1.06,3.1,2,4.73,2.83c1.62,0.83,3.23,1.47,4.83,1.96c1.6,0.48,3.11,0.71,4.52,0.71
			c1.94,0,3.75-0.25,5.44-0.74c1.7-0.49,3.15-1.18,4.38-2.08c1.23-0.9,2.21-1.98,2.91-3.25c0.7-1.27,1.06-2.68,1.06-4.22
			c0-1.55-0.45-2.88-1.38-3.99c-0.92-1.11-2.11-2.08-3.59-2.91c-1.48-0.83-3.15-1.54-5-2.14c-1.84-0.6-3.71-1.16-5.57-1.7
			c-4.3-1.3-8.05-2.72-11.28-4.22c-3.23-1.51-5.91-3.22-8.05-5.1c-2.15-1.88-3.76-4-4.83-6.34c-1.08-2.34-1.62-4.98-1.62-7.9
			c0-3.28,0.66-6.26,1.98-8.95c1.33-2.7,3.2-5,5.63-6.93c2.43-1.93,5.36-3.42,8.78-4.49c3.42-1.08,7.23-1.62,11.46-1.62
			c3.2,0,6.46,0.5,9.77,1.5c3.31,1.01,6.38,2.39,9.19,4.15c0.84,0.53,1.71,1.13,2.59,1.79c0.88,0.67,1.69,1.35,2.43,2.03
			c0.74,0.68,1.35,1.35,1.82,2c0.47,0.65,0.71,1.2,0.71,1.67c0,0.42-0.11,0.86-0.32,1.29c-0.2,0.44-0.47,0.84-0.79,1.19l-1.59,1.69
			v-0.05c-0.52,0.56-1.08,1.15-1.64,1.74c-0.57,0.6-1.14,1.14-1.7,1.62c-0.57,0.47-1.08,0.87-1.53,1.18
			C4613.44,3152.79,4613.04,3152.95,4612.73,3152.95z"/>
		<path class="st0" d="M4646.05,3171.32c0-3.7,0.47-7.26,1.43-10.72c0.95-3.45,2.3-6.68,4.06-9.67c1.76-3,3.86-5.72,6.32-8.19
			c2.45-2.47,5.16-4.57,8.16-6.32c3-1.74,6.2-3.1,9.64-4.07c3.43-0.96,7.01-1.45,10.74-1.45c3.7,0,7.26,0.49,10.69,1.45
			c3.43,0.96,6.65,2.32,9.64,4.07c2.99,1.74,5.72,3.85,8.19,6.32c2.47,2.47,4.57,5.19,6.31,8.19c1.74,3,3.1,6.21,4.07,9.67
			c0.96,3.45,1.45,7.04,1.45,10.77c0,3.73-0.48,7.3-1.45,10.72c-0.97,3.42-2.32,6.63-4.07,9.61c-1.74,3-3.84,5.71-6.31,8.17
			c-2.47,2.45-5.2,4.54-8.19,6.28c-3,1.74-6.21,3.09-9.64,4.05c-3.44,0.94-7.02,1.43-10.74,1.43c-3.74,0-7.31-0.47-10.75-1.43
			c-3.43-0.95-6.65-2.3-9.64-4.07c-2.99-1.76-5.7-3.85-8.16-6.31c-2.45-2.45-4.54-5.15-6.29-8.14c-1.74-2.98-3.08-6.17-4.04-9.61
			C4646.53,3178.64,4646.05,3175.06,4646.05,3171.32z M4661.32,3171.22c0,3.55,0.65,6.88,1.93,9.98c1.29,3.1,3.05,5.8,5.29,8.08
			c2.23,2.29,4.87,4.1,7.92,5.44c3.04,1.34,6.34,2,9.9,2c3.52,0,6.8-0.67,9.85-2c3.04-1.33,5.69-3.15,7.95-5.44
			c2.25-2.28,4.02-4.98,5.31-8.08c1.28-3.1,1.93-6.43,1.93-9.98c0-3.52-0.65-6.83-1.93-9.93c-1.29-3.1-3.05-5.81-5.31-8.11
			c-2.25-2.3-4.9-4.12-7.95-5.46c-3.05-1.34-6.33-2-9.85-2c-3.56,0-6.86,0.67-9.9,2c-3.05,1.34-5.68,3.16-7.92,5.46
			c-2.23,2.3-4,5.01-5.29,8.11C4661.96,3164.38,4661.32,3167.7,4661.32,3171.22z"/>
		<path class="st0" d="M4752,3134.36c0-0.64,0.21-1.18,0.64-1.64s1.01-0.69,1.79-0.69h10.48c0.63,0,1.18,0.21,1.66,0.61
			c0.47,0.4,0.71,0.98,0.71,1.71v61.63h33.06c0.63,0,1.18,0.22,1.64,0.66s0.68,1.03,0.68,1.76v9.67c0,0.63-0.2,1.18-0.63,1.67
			c-0.42,0.47-0.98,0.71-1.7,0.71h-46.01c-1.54,0-2.32-0.77-2.32-2.32v-73.78H4752z"/>
		<path class="st0" d="M4949,3175.13c-0.5,2.32-1.35,4.44-2.57,6.37c-1.21,1.92-2.67,3.56-4.35,4.94c-1.69,1.38-3.58,2.44-5.68,3.2
			c-2.09,0.76-4.27,1.13-6.52,1.13c-0.6,0-1.21-0.04-1.85-0.13c-0.64-0.09-1.19-0.18-1.7-0.29l-4.33-0.95
			c-0.46,4.27-1.56,7.81-3.3,10.64s-3.9,5.1-6.46,6.78s-5.44,2.88-8.6,3.59c-3.18,0.7-6.42,1.06-9.72,1.06
			c-3.73,0-7.26-0.62-10.62-1.84c-3.34-1.23-6.27-2.94-8.79-5.12c-2.51-2.18-4.52-4.8-6-7.84c-1.47-3.05-2.22-6.39-2.22-10.02
			c0-2.49,0.27-4.78,0.82-6.84c0.55-2.06,1.31-3.92,2.3-5.6c0.98-1.67,2.17-3.18,3.54-4.52c1.38-1.34,2.88-2.54,4.54-3.59
			c-1.86-1.71-3.3-3.73-4.33-6.02c-1.02-2.29-1.53-4.93-1.53-7.92c0-2.96,0.6-5.7,1.79-8.24c1.19-2.53,2.8-4.73,4.81-6.58
			c2-1.85,4.33-3.29,6.97-4.35c2.64-1.06,5.41-1.59,8.34-1.59c2.88,0,5.64,0.4,8.27,1.21c2.62,0.82,4.93,2.08,6.95,3.8
			c2,1.72,3.59,3.91,4.78,6.55c1.19,2.64,1.77,5.78,1.77,9.4c0,0.98-0.26,1.71-0.79,2.19c-0.52,0.47-1.21,0.71-2.05,0.71h-3.64
			c-0.32,0-0.64,0.01-0.95,0.02c-0.32,0.02-0.64,0.03-0.95,0.03h-1.9c-0.89,0-1.58-0.23-2.09-0.68c-0.51-0.46-0.76-1.14-0.76-2
			c0-2.4-0.65-4.32-1.96-5.75s-3.32-2.17-6.07-2.17c-1.55,0-2.85,0.25-3.9,0.77c-1.06,0.51-1.92,1.16-2.59,1.96
			c-0.67,0.79-1.15,1.67-1.43,2.64c-0.28,0.96-0.42,1.93-0.42,2.88c0,0.56,0.14,1.29,0.42,2.19c0.28,0.91,0.74,1.79,1.38,2.67
			c0.64,0.88,1.44,1.69,2.46,2.4c1,0.72,2.23,1.18,3.67,1.4c1.66,0.25,2.48,1.09,2.48,2.53v0.21c0,0.04-0.01,0.09-0.02,0.15
			c-0.02,0.07-0.03,0.15-0.03,0.26l-1.38,6.76c-0.11,0.88-0.4,1.49-0.87,1.85c-0.47,0.36-1.07,0.52-1.77,0.52
			c-1.94,0-3.59,0.28-4.96,0.85c-1.38,0.56-2.5,1.35-3.38,2.35c-0.89,1.01-1.52,2.18-1.93,3.54c-0.4,1.35-0.61,2.82-0.61,4.41
			c0,1.58,0.29,3.13,0.87,4.64c0.58,1.52,1.45,2.86,2.59,4.02c1.15,1.16,2.53,2.1,4.17,2.8c1.64,0.7,3.51,1.06,5.63,1.06
			c1.62,0,3.2-0.24,4.73-0.72c1.52-0.47,2.9-1.18,4.11-2.14c1.21-0.94,2.22-2.13,2.99-3.54c0.77-1.41,1.23-3.05,1.38-4.91
			l-5.81-1.47c-0.7-0.18-1.25-0.51-1.67-1.01c-0.4-0.49-0.61-1.06-0.61-1.7c0-0.81,0.13-1.67,0.42-2.56c0.28-0.9,0.5-1.76,0.64-2.62
			l0.68-3.01c0.18-0.7,0.5-1.28,0.95-1.74s1.04-0.69,1.74-0.69c0.11,0,0.24,0.01,0.42,0.03c0.17,0.01,0.3,0.04,0.38,0.08h-0.06
			l23.55,5.17c0.42,0.11,0.83,0.15,1.21,0.15c1.47,0,2.78-0.47,3.91-1.43c1.13-0.95,1.92-2.1,2.37-3.44
			c0.07-0.67,0.36-1.21,0.87-1.64c0.51-0.42,1.11-0.64,1.77-0.64s1.32,0.11,1.96,0.32s1.21,0.32,1.74,0.32l4.49,1
			c0.7,0.08,1.28,0.41,1.74,1.03c0.46,0.62,0.69,1.25,0.69,1.93c0,0.18-0.01,0.32-0.03,0.42
			C4949.08,3174.87,4949.04,3175.02,4949,3175.13z"/>
		<path class="st0" d="M5022.36,3134.36c0.07-0.66,0.33-1.22,0.79-1.67c0.46-0.44,1.04-0.66,1.74-0.66h13.21
			c1.23,0,2.04,0.67,2.43,2l18.65,51.97c3.13-8.74,6.27-17.4,9.43-25.99c3.15-8.58,6.27-17.25,9.37-25.98c0.5-1.34,1.3-2,2.43-2
			h13.25c0.7,0,1.28,0.23,1.71,0.69c0.44,0.45,0.67,1,0.71,1.64c1.3,12.36,2.62,24.66,3.96,36.91c1.34,12.25,2.68,24.55,4.02,36.87
			v0.15c0,1.44-0.77,2.17-2.32,2.17h-10.24c-1.59,0-2.42-0.77-2.49-2.32l-5.4-49.97l-17.58,48.59c-0.18,0.5-0.46,0.95-0.85,1.38
			s-0.79,0.64-1.21,0.64h-9.5c-0.46,0-0.89-0.2-1.27-0.61s-0.66-0.87-0.84-1.4c-2.89-8.13-5.8-16.21-8.72-24.24
			c-2.93-8.03-5.87-16.13-8.82-24.29l-5.39,49.91c0,1.55-0.81,2.32-2.43,2.32h-10.25c-1.54,0-2.32-0.77-2.32-2.32L5022.36,3134.36z"
			/>
		<path class="st0" d="M5123.5,3208.5c0.18-0.7,0.38-1.36,0.61-1.96c0.23-0.6,0.43-1.15,0.61-1.65l28.47-70.88
			c0.11-0.39,0.4-0.82,0.87-1.29c0.47-0.47,1.12-0.72,1.94-0.72h8.51c0.84,0,1.45,0.21,1.82,0.64c0.38,0.42,0.65,0.79,0.82,1.11
			l1.74,4.12l27.89,69.76c0,0.11,0.03,0.29,0.08,0.56c0.06,0.26,0.09,0.48,0.09,0.66c0,1.06-0.77,1.59-2.32,1.59h-10.4
			c-0.78,0-1.38-0.15-1.8-0.47c-0.42-0.32-0.77-0.81-1.06-1.47l-0.94-2.43c-0.67-1.7-1.34-3.38-2-5.08
			c-0.66-1.7-1.33-3.39-1.96-5.13h-32.59c-0.92,2.47-1.81,4.78-2.67,6.95s-1.59,4.06-2.19,5.68c-0.5,1.3-1.42,1.96-2.75,1.96h-10.57
			c-0.66,0-1.2-0.13-1.61-0.38c-0.4-0.24-0.61-0.62-0.61-1.11C5123.46,3208.77,5123.47,3208.61,5123.5,3208.5z M5160.26,3152.15
			c-1.91,4.86-3.8,9.89-5.68,15.1c-1.89,5.21-3.78,10.23-5.68,15.06h22.5L5160.26,3152.15z"/>
		<path class="st0" d="M5219.46,3134.51c0-1.66,0.77-2.49,2.32-2.49h32.32c3.55,0,6.89,0.67,9.99,2c3.1,1.34,5.8,3.15,8.1,5.44
			c2.3,2.29,4.12,4.98,5.44,8.08s1.98,6.39,1.98,9.87c0,2.43-0.34,4.76-1.01,6.97c-0.66,2.22-1.6,4.27-2.79,6.17
			c-1.2,1.9-2.63,3.61-4.28,5.14c-1.66,1.53-3.49,2.83-5.49,3.88l13.74,27.1c0.07,0.36,0.19,0.7,0.37,1.06
			c0.18,0.36,0.26,0.72,0.26,1.11c0,1.06-0.62,1.59-1.84,1.59h-12.25c-1.27,0-2.11-0.65-2.53-1.96l-12.78-25.35
			c-0.57,0-1.18,0.01-1.82,0.03c-0.66,0.02-1.55,0.03-2.7,0.03c-1.15,0-2.64,0-4.49,0c-1.85,0-4.24,0-7.16,0v24.98
			c0,1.51-0.82,2.27-2.43,2.27h-10.62c-0.71,0-1.27-0.18-1.69-0.55c-0.42-0.38-0.64-0.94-0.64-1.71L5219.46,3134.51L5219.46,3134.51
			z M5263.98,3157.52c0-1.51-0.28-2.98-0.84-4.4c-0.57-1.43-1.36-2.7-2.38-3.81c-1.02-1.13-2.23-2.04-3.64-2.75
			c-1.41-0.69-2.94-1.11-4.58-1.2c-1.23-0.04-2.45-0.06-3.62-0.09c-1.18-0.01-2.4-0.03-3.67-0.03h-10.4v24.51h13.94
			c0.7,0,1.37,0,1.98,0s1.28-0.04,1.98-0.11c1.66-0.11,3.18-0.49,4.57-1.16c1.4-0.66,2.58-1.55,3.56-2.66
			c0.98-1.11,1.75-2.37,2.3-3.8C5263.74,3160.6,5263.98,3159.1,5263.98,3157.52z"/>
	</g>
</g>
<g>
	<g>
		<path class="st0" d="M4053.63,5092.83c-46.03,0-83.39,37.37-83.39,83.39c0,16.72,5.31,31.87,13.77,44.84l-14.35,40.12l44.65-12.59
			c11.8,6.49,24.98,11.01,39.34,11.01c46.03,0,83.39-37.37,83.39-83.39C4137.23,5130.2,4099.66,5092.83,4053.63,5092.83z
			 M4053.63,5105.61c39.14,0,70.61,31.47,70.61,70.61c0,39.14-31.47,70.61-70.61,70.61c-13.37,0-25.77-3.74-36.59-10.23l-2.36-1.38
			l-24.79,6.89l8.06-22.22l-1.97-2.75c-8.27-11.61-13.18-25.57-13.18-40.91C3983.02,5137.09,4014.69,5105.61,4053.63,5105.61z
			 M4022.36,5131.18c-1.38,0-3.93,0.59-5.91,2.95s-7.67,8.06-7.67,19.86c0,11.61,7.87,23.01,9.05,24.58
			c1.18,1.57,15.54,25.57,37.76,35.99c5.31,2.55,9.44,3.93,12.59,5.12c5.31,1.77,10.23,1.57,13.97,0.98
			c4.33-0.79,13.18-5.7,14.95-11.41c1.77-5.51,1.77-10.42,1.19-11.41c-0.59-0.98-1.97-1.57-4.13-2.75
			c-2.17-1.18-13.18-6.89-15.14-7.67c-1.97-0.79-3.55-1.19-5.12,1.18c-1.38,2.36-5.7,7.67-6.89,9.25c-1.38,1.57-2.55,1.77-4.72,0.59
			c-2.17-1.18-9.44-3.74-17.9-11.8c-6.49-6.29-11.01-14.16-12.2-16.52c-1.38-2.36-0.19-3.74,0.98-4.72
			c0.98-1.19,2.17-2.75,3.34-4.13c1.18-1.38,1.38-2.36,2.17-3.93c0.79-1.57,0.4-2.95-0.19-4.13c-0.59-1.19-4.91-12.99-6.89-17.71
			c-1.77-4.53-3.74-3.93-5.12-4.13C4025.31,5131.18,4023.93,5131.18,4022.36,5131.18z"/>
	</g>
</g>
<g>
	<g>
		<g>
			<path class="st0" d="M2562.08,5105c22.43,0,25.17,0,34.02,0.59c8.27,0.4,12.59,1.77,15.54,2.95c3.93,1.57,6.69,3.34,9.63,6.29
				c2.95,2.95,4.72,5.7,6.29,9.63c1.18,2.95,2.55,7.48,2.95,15.54c0.39,8.85,0.59,11.61,0.59,34.02c0,22.42,0,25.17-0.59,34.02
				c-0.39,8.27-1.77,12.59-2.95,15.54c-1.57,3.93-3.34,6.69-6.29,9.63s-5.7,4.72-9.63,6.29c-2.95,1.19-7.48,2.55-15.54,2.95
				c-8.85,0.4-11.61,0.4-34.02,0.4c-22.42,0-25.17,0-34.02-0.4c-8.27-0.4-12.59-1.77-15.54-2.95c-3.93-1.57-6.69-3.34-9.63-6.29
				c-2.95-2.95-4.72-5.7-6.29-9.63c-1.19-2.95-2.55-7.48-2.95-15.54c-0.39-8.85-0.59-11.61-0.59-34.02c0-22.42,0-25.17,0.59-34.02
				c0.4-8.27,1.77-12.59,2.95-15.54c1.57-3.93,3.34-6.69,6.29-9.63c2.95-2.95,5.7-4.72,9.63-6.29c2.95-1.18,7.48-2.55,15.54-2.95
				C2537.1,5105,2539.66,5105,2562.08,5105 M2562.08,5089.85c-22.81,0-25.77,0.19-34.62,0.59c-9.05,0.4-15.14,1.77-20.45,3.93
				c-5.51,2.17-10.23,5.12-14.95,9.63c-4.72,4.72-7.48,9.44-9.63,14.95c-2.17,5.31-3.54,11.41-3.93,20.45
				c-0.39,9.05-0.59,11.8-0.59,34.62c0,22.82,0.19,25.77,0.59,34.62c0.39,9.05,1.77,15.14,3.93,20.45
				c2.17,5.51,5.12,10.23,9.63,14.95c4.72,4.72,9.44,7.48,14.95,9.63c5.31,2.17,11.41,3.54,20.45,3.93
				c9.05,0.39,11.8,0.59,34.62,0.59c22.81,0,25.77,0,34.62-0.59c9.05-0.4,15.14-1.77,20.45-3.93c5.51-2.17,10.23-5.12,14.95-9.63
				c4.72-4.72,7.48-9.44,9.63-14.95c2.17-5.31,3.54-11.41,3.93-20.45c0.39-9.05,0.59-11.8,0.59-34.62c0-22.81,0-25.77-0.59-34.62
				c-0.4-9.05-1.77-15.14-3.93-20.45c-2.17-5.51-5.12-10.23-9.63-14.95c-4.72-4.72-9.44-7.48-14.95-9.63
				c-5.31-2.17-11.41-3.55-20.45-3.93C2587.85,5090.05,2584.9,5089.85,2562.08,5089.85z M2562.08,5130.77
				c-23.8,0-43.07,19.28-43.07,43.27c0,23.8,19.28,43.27,43.07,43.27s43.27-19.28,43.27-43.27
				C2605.35,5150.04,2586.08,5130.77,2562.08,5130.77z M2562.08,5201.97c-15.54,0-28.13-12.59-28.13-28.13s12.59-28.13,28.13-28.13
				c15.54,0,28.13,12.59,28.13,28.13C2590.21,5189.38,2577.62,5201.97,2562.08,5201.97z M2617.15,5128.99
				c0,5.51-4.53,10.03-10.03,10.03s-10.03-4.53-10.03-10.03c0-5.51,4.53-10.03,10.03-10.03S2617.15,5123.48,2617.15,5128.99z"/>
		</g>
	</g>
</g>
<g class="st1">
	<path class="st0" d="M2754.41,5193.33c0,4.41,0.61,8.15,1.83,11.22c1.22,3.07,2.83,5.57,4.83,7.51c2,1.94,4.33,3.35,6.98,4.25
		c2.65,0.89,5.42,1.34,8.28,1.34c2.98,0,5.8-0.52,8.46-1.56c2.66-1.04,4.98-2.59,6.98-4.65c2-2.06,3.58-4.6,4.74-7.64
		c1.16-3.04,1.75-6.53,1.75-10.46v-75.82c0-1.07,0.37-2,1.12-2.77c0.74-0.77,1.74-1.16,2.99-1.16h26.09c1.37,0,2.44,0.4,3.22,1.21
		c0.77,0.8,1.16,1.71,1.16,2.72v75.31c0,10.42-1.53,19.18-4.6,26.26c-3.07,7.09-7.19,12.79-12.37,17.11
		c-5.18,4.32-11.18,7.41-18,9.29c-6.82,1.88-13.98,2.81-21.48,2.81c-7.5,0-14.68-0.97-21.53-2.9c-6.85-1.93-12.86-5.09-18.05-9.47
		c-5.18-4.38-9.31-10.09-12.37-17.15c-3.07-7.06-4.6-15.71-4.6-25.95v-75.31c0-1.01,0.34-1.92,1.02-2.72
		c0.68-0.8,1.53-1.21,2.54-1.21h26.73c0.89,0,1.83,0.37,2.81,1.12c0.98,0.75,1.47,1.68,1.47,2.82V5193.33z"/>
	<path class="st0" d="M2875.46,5203.36c1.01,0.83,2.31,1.95,3.89,3.35c1.58,1.4,3.38,2.78,5.4,4.15c3.04,2.03,6.04,3.6,9.02,4.74
		c2.98,1.13,6.1,1.7,9.38,1.7c3.04,0,5.58-0.34,7.64-1.03c2.05-0.68,3.68-1.59,4.87-2.72c1.19-1.13,2.04-2.44,2.55-3.93
		c0.51-1.49,0.76-3.07,0.76-4.73c0-1.84-0.7-3.5-2.1-4.95c-1.4-1.46-3.11-2.75-5.14-3.88c-2.03-1.13-4.14-2.1-6.34-2.9
		c-2.2-0.8-4.11-1.47-5.72-2.01c-7.15-2.5-13.4-5.19-18.76-8.08c-5.36-2.89-9.83-6.1-13.4-9.64s-6.25-7.44-8.04-11.69
		s-2.68-9-2.68-14.24c0-5.53,1.12-10.56,3.35-15.08s5.42-8.39,9.56-11.6c4.14-3.21,9.13-5.7,14.96-7.45
		c5.84-1.76,12.36-2.63,19.56-2.63c5.42,0,10.62,0.61,15.59,1.83c4.97,1.22,9.87,3.17,14.7,5.85c2.02,1.19,3.94,2.43,5.76,3.71
		c1.82,1.28,3.41,2.52,4.78,3.71c1.37,1.19,2.46,2.32,3.26,3.39c0.8,1.07,1.21,2,1.21,2.77c0,0.77-0.19,1.49-0.58,2.14
		c-0.39,0.66-0.97,1.4-1.74,2.23l-13.67,14.56c-1.01,1.01-2.03,1.52-3.04,1.52c-0.83,0-1.59-0.24-2.28-0.71
		c-0.69-0.48-1.44-1.07-2.28-1.79l-0.8-0.71c-1.19-1.01-2.52-2.05-3.98-3.13c-1.46-1.07-3.02-2.04-4.69-2.9
		c-1.67-0.86-3.43-1.58-5.27-2.14c-1.85-0.57-3.72-0.85-5.63-0.85c-1.97,0-3.81,0.17-5.54,0.49c-1.73,0.33-3.25,0.85-4.56,1.56
		c-1.31,0.71-2.35,1.65-3.13,2.81c-0.77,1.16-1.16,2.58-1.16,4.24c0,1.67,0.42,3.11,1.25,4.33c0.83,1.22,2.08,2.35,3.75,3.4
		c1.67,1.04,3.74,2.03,6.21,2.95c2.47,0.92,5.34,1.92,8.62,2.99c6.31,2.08,12.13,4.27,17.46,6.57c5.33,2.29,9.93,5,13.8,8.13
		c3.87,3.13,6.89,6.87,9.07,11.21c2.17,4.35,3.26,9.62,3.26,15.81c0,6.55-1.34,12.49-4.02,17.82c-2.68,5.33-6.36,9.87-11.03,13.62
		c-4.68,3.75-10.17,6.66-16.48,8.71c-6.31,2.05-13.1,3.08-20.37,3.08c-6.85,0-13.58-1.23-20.19-3.67
		c-6.61-2.45-12.77-5.73-18.49-9.86c-2.38-1.73-4.39-3.44-6.03-5.11c-1.64-1.67-2.93-3.02-3.89-4.03l-0.27-0.27
		c-0.06-0.12-0.12-0.19-0.18-0.22c-0.06-0.03-0.12-0.07-0.18-0.13c-0.06-0.12-0.12-0.19-0.18-0.22c-0.06-0.03-0.12-0.07-0.18-0.13
		c-1.37-1.49-2.05-2.69-2.05-3.58c0-1.01,0.68-2.15,2.05-3.4l15.45-14.74c1.25-0.89,2.26-1.34,3.04-1.34c0.54,0,1.1,0.18,1.7,0.54
		C2873.91,5202.11,2874.62,5202.64,2875.46,5203.36z"/>
	<path class="st0" d="M2975.96,5117.68c0-1.25,0.34-2.25,1.02-2.99c0.68-0.74,1.65-1.12,2.9-1.12h88.63c1.31,0,2.32,0.39,3.04,1.16
		c0.71,0.77,1.07,1.81,1.07,3.12v22.09c0,1.01-0.36,1.98-1.07,2.9c-0.71,0.92-1.76,1.38-3.13,1.38h-57.89v22.16h44.67
		c1.13,0,2.07,0.27,2.81,0.8c0.74,0.54,1.12,1.43,1.12,2.68v19.3c0,0.83-0.33,1.64-0.98,2.41c-0.66,0.77-1.61,1.16-2.86,1.16h-44.76
		v22.87h60.03c2.68,0,4.02,1.37,4.02,4.1v22.45c0,0.59-0.24,1.13-0.71,1.6c-0.24,1.66-1.46,2.49-3.66,2.49h-90.33
		c-1.19,0-2.14-0.31-2.85-0.94c-0.71-0.63-1.07-1.59-1.07-2.9V5117.68z"/>
	<path class="st0" d="M3096.92,5225.78c0-2.62,1.31-3.93,3.93-3.93h82.37c1.07,0,1.99,0.34,2.77,1.03c0.77,0.69,1.16,1.65,1.16,2.9
		v16.17c0,0.42-0.09,0.88-0.27,1.38c-0.18,0.51-0.45,0.97-0.8,1.38c-0.36,0.42-0.77,0.77-1.25,1.07c-0.48,0.3-1.01,0.45-1.61,0.45
		h-82.37c-2.62,0-3.93-1.43-3.93-4.29V5225.78z"/>
	<path class="st0" d="M3223.86,5117.51c0.12-1.07,0.54-1.99,1.25-2.77c0.71-0.77,1.73-1.16,3.04-1.16h30.91
		c2.2,0,3.63,1.13,4.29,3.39l24.3,81.12l24.48-81.12c0.83-2.26,2.35-3.39,4.56-3.39h30.55c1.07,0,2.04,0.37,2.9,1.12
		c0.86,0.75,1.35,1.68,1.47,2.81c2.08,20.96,4.21,41.76,6.39,62.4c2.17,20.64,4.3,41.44,6.39,62.4v0.45c0,2.32-1.31,3.48-3.93,3.48
		h-25.28c-2.74,0-4.17-1.31-4.29-3.93l-7.77-69.06l-20.1,69.5c-0.12,0.6-0.55,1.31-1.3,2.14c-0.75,0.83-1.47,1.25-2.19,1.25h-23.49
		c-0.71,0-1.47-0.4-2.28-1.21c-0.8-0.8-1.24-1.53-1.3-2.19l-20.1-69.32l-7.77,68.88c-0.12,2.62-1.58,3.93-4.38,3.93h-25.28
		c-2.56,0-3.84-1.31-3.84-3.93L3223.86,5117.51z"/>
	<path class="st0" d="M3388.41,5117.51c0-1.07,0.33-1.99,0.98-2.77c0.65-0.77,1.64-1.16,2.95-1.16h26.26c0.89,0,1.85,0.36,2.86,1.07
		c1.01,0.71,1.52,1.67,1.52,2.86v124.8c0,2.62-1.46,3.93-4.38,3.93h-26.26c-2.62,0-3.93-1.31-3.93-3.93V5117.51z"/>
	<path class="st0" d="M3451.93,5117.68c0-1.25,0.33-2.25,0.98-2.99c0.65-0.74,1.64-1.12,2.95-1.12h57.71
		c6.13,0,11.88,1.15,17.24,3.44c5.36,2.29,10.03,5.41,14.03,9.34c3.99,3.93,7.13,8.53,9.42,13.8c2.29,5.27,3.44,10.88,3.44,16.84
		c0,4.05-0.55,7.91-1.65,11.57c-1.1,3.66-2.64,7.09-4.6,10.27c-1.97,3.19-4.3,6.08-7.01,8.67c-2.71,2.59-5.67,4.81-8.89,6.66
		l22.96,43.24c0.42,0.83,0.95,1.82,1.61,2.95c0.65,1.13,0.98,2.12,0.98,2.95c0,0.95-0.31,1.68-0.94,2.19
		c-0.63,0.51-1.47,0.76-2.55,0.76h-30.64c-1.01,0-1.92-0.3-2.72-0.89c-0.8-0.59-1.33-1.4-1.56-2.41l-21.71-40.83h-14.47v40.29
		c0,2.56-1.37,3.84-4.11,3.84h-26.53c-1.19,0-2.14-0.31-2.86-0.94c-0.71-0.63-1.07-1.59-1.07-2.9V5117.68z M3521.88,5157.35
		c0-1.79-0.33-3.57-0.98-5.36c-0.66-1.79-1.58-3.42-2.77-4.91c-1.19-1.49-2.62-2.74-4.29-3.75c-1.67-1.01-3.51-1.67-5.54-1.97
		c-1.67-0.12-3.23-0.22-4.69-0.31c-1.46-0.09-3.05-0.13-4.78-0.13h-12.33v32.79h16.44c1.07,0,2.02-0.03,2.86-0.09
		c0.83-0.06,1.76-0.15,2.77-0.27c2.08-0.24,3.96-0.85,5.63-1.83c1.67-0.98,3.07-2.2,4.2-3.66c1.13-1.46,1.99-3.1,2.59-4.91
		C3521.58,5161.12,3521.88,5159.26,3521.88,5157.35z"/>
	<path class="st0" d="M3615.41,5117.06c0.06-0.36,0.25-0.74,0.58-1.16c0.33-0.42,0.73-0.8,1.21-1.16c0.48-0.36,0.98-0.64,1.52-0.85
		c0.54-0.21,1.04-0.31,1.52-0.31h22.87c1.01,0,1.88,0.31,2.59,0.94c0.71,0.63,1.25,1.18,1.61,1.65l2.23,5.09l46.9,120.96
		c0.48,1.19,0.39,2.16-0.27,2.9c-0.66,0.75-1.79,1.12-3.39,1.12h-25.64c-1.37,0-2.43-0.25-3.17-0.76c-0.75-0.5-1.33-1.35-1.74-2.55
		c-1.19-3.04-2.35-6.06-3.48-9.07c-1.13-3.01-2.26-6.03-3.39-9.07h-47.44c-1.13,3.04-2.28,6.06-3.44,9.07
		c-1.16,3.01-2.31,6.03-3.44,9.07c-0.77,2.2-2.29,3.31-4.56,3.31h-26.35c-1.13,0-2.07-0.3-2.81-0.89c-0.75-0.59-0.88-1.49-0.4-2.68
		L3615.41,5117.06z M3631.67,5155.29c-1.13,3.04-2.28,6.31-3.44,9.83c-1.16,3.52-2.31,7.06-3.44,10.63
		c-1.13,3.57-2.28,7.1-3.44,10.59c-1.16,3.48-2.31,6.74-3.44,9.78h27.43L3631.67,5155.29z"/>
	<path class="st0" d="M3714.57,5117.51c0-1.07,0.33-1.99,0.98-2.77c0.65-0.77,1.64-1.16,2.95-1.16h26.26c0.89,0,1.85,0.36,2.86,1.07
		c1.01,0.71,1.52,1.67,1.52,2.86v124.8c0,2.62-1.46,3.93-4.38,3.93h-26.26c-2.62,0-3.93-1.31-3.93-3.93V5117.51z"/>
</g>
<g class="st1">
	<path class="st0" d="M4196.63,5248.95c-4.21-16.04-6.31-33.21-6.31-51.53c0-18.31,2.11-35.52,6.31-51.63
		c4.21-16.1,10.26-30.17,18.15-42.2h23.86c-8.15,14.44-14.13,29.31-17.94,44.61c-3.81,15.31-5.71,31.71-5.71,49.22
		c0,17.51,1.9,33.92,5.71,49.22c3.81,15.3,9.79,30.17,17.94,44.61h-23.86C4206.89,5279.09,4200.84,5264.99,4196.63,5248.95z"/>
</g>
<g class="st1">
	<path class="st0" d="M4365.75,5192.22c3.47,5.48,5.21,11.76,5.21,18.85c0,8.82-2.54,16.58-7.62,23.26
		c-5.08,6.68-12.23,11.83-21.45,15.44c-9.22,3.61-19.85,5.41-31.88,5.41s-22.66-1.8-31.88-5.41c-9.22-3.61-16.37-8.75-21.45-15.44
		c-5.08-6.68-7.62-14.44-7.62-23.26c0-7.08,1.74-13.36,5.21-18.85c3.47-5.48,8.42-10.09,14.84-13.83
		c-4.81-3.34-8.52-7.42-11.13-12.23s-3.91-10.16-3.91-16.04c0-8.15,2.34-15.34,7.02-21.55c4.68-6.21,11.26-10.99,19.75-14.33
		c8.49-3.34,18.21-5.01,29.17-5.01c10.96,0,20.68,1.67,29.17,5.01c8.49,3.34,15.07,8.12,19.75,14.33c4.68,6.22,7.02,13.4,7.02,21.55
		c0,5.88-1.3,11.23-3.91,16.04c-2.61,4.81-6.32,8.89-11.13,12.23C4357.33,5182.12,4362.27,5186.74,4365.75,5192.22z
		 M4325.35,5222.59c3.81-3.14,5.71-7.38,5.71-12.73c0-5.34-1.91-9.59-5.71-12.73c-3.81-3.14-8.92-4.71-15.34-4.71
		s-11.53,1.57-15.34,4.71c-3.81,3.14-5.71,7.39-5.71,12.73c0,5.35,1.9,9.59,5.71,12.73c3.81,3.14,8.92,4.71,15.34,4.71
		S4321.54,5225.73,4325.35,5222.59z M4297.98,5140.99c-3.08,2.61-4.61,6.25-4.61,10.93c0,4.55,1.5,8.12,4.51,10.73
		c3.01,2.61,7.05,3.91,12.13,3.91c5.08,0,9.15-1.3,12.23-3.91c3.07-2.61,4.61-6.18,4.61-10.73c0-4.68-1.54-8.32-4.61-10.93
		c-3.08-2.61-7.15-3.91-12.23-3.91C4305.07,5137.08,4301.06,5138.38,4297.98,5140.99z"/>
	<path class="st0" d="M4492.46,5220.89v31.48h-109.27v-24.86l52.53-49.12c5.08-4.81,8.49-8.92,10.23-12.33
		c1.74-3.41,2.61-6.85,2.61-10.33c0-4.54-1.54-8.09-4.61-10.63c-3.08-2.54-7.55-3.81-13.43-3.81c-5.21,0-9.99,1.17-14.33,3.51
		c-4.35,2.34-7.92,5.71-10.73,10.13l-29.47-16.44c5.48-9.09,13.16-16.24,23.06-21.45c9.89-5.21,21.58-7.82,35.09-7.82
		c10.69,0,20.15,1.74,28.37,5.21c8.22,3.48,14.64,8.46,19.25,14.94c4.61,6.49,6.92,14,6.92,22.56c0,7.62-1.64,14.81-4.91,21.55
		c-3.28,6.75-9.59,14.4-18.95,22.96l-26.46,24.46H4492.46z"/>
</g>
<g class="st1">
	<path class="st0" d="M4501.68,5291.26c8.15-14.44,14.17-29.34,18.04-44.71c3.88-15.37,5.81-31.74,5.81-49.12
		c0-17.37-1.94-33.75-5.81-49.12c-3.88-15.37-9.89-30.27-18.04-44.71h23.86c7.88,11.9,13.93,25.9,18.14,42
		c4.21,16.11,6.32,33.38,6.32,51.83c0,18.45-2.11,35.66-6.32,51.63c-4.21,15.97-10.26,30.04-18.14,42.2H4501.68z"/>
</g>
<g class="st1">
	<path class="st0" d="M4672.9,5127.05c11.63,11.9,17.44,29.01,17.44,51.33c0,16.04-3.11,29.84-9.32,41.4
		c-6.22,11.56-14.97,20.35-26.26,26.37c-11.3,6.01-24.36,9.02-39.2,9.02c-7.89,0-15.44-0.9-22.66-2.71
		c-7.22-1.8-13.37-4.31-18.45-7.52l14.44-28.47c6.82,4.81,15.44,7.22,25.86,7.22c10.02,0,18.14-2.77,24.36-8.32
		c6.22-5.54,9.86-13.6,10.93-24.16c-8.02,6.82-18.51,10.23-31.48,10.23c-8.82,0-16.91-1.84-24.26-5.51
		c-7.35-3.67-13.2-8.89-17.54-15.64c-4.34-6.75-6.52-14.47-6.52-23.16c0-9.49,2.44-17.88,7.32-25.16
		c4.88-7.28,11.49-12.9,19.85-16.84c8.35-3.94,17.61-5.92,27.77-5.92C4645.37,5109.21,4661.27,5115.16,4672.9,5127.05z
		 M4642.03,5168.06c3.61-3.27,5.41-7.58,5.41-12.93c0-5.21-1.77-9.45-5.31-12.73c-3.54-3.27-8.32-4.91-14.34-4.91
		c-5.61,0-10.19,1.6-13.73,4.81c-3.54,3.21-5.31,7.55-5.31,13.03c0,5.35,1.77,9.62,5.31,12.83c3.54,3.21,8.19,4.81,13.93,4.81
		C4633.74,5172.97,4638.42,5171.33,4642.03,5168.06z"/>
	<path class="st0" d="M4803.02,5127.05c11.63,11.9,17.44,29.01,17.44,51.33c0,16.04-3.11,29.84-9.32,41.4
		c-6.22,11.56-14.97,20.35-26.26,26.37c-11.3,6.01-24.36,9.02-39.2,9.02c-7.89,0-15.44-0.9-22.66-2.71
		c-7.22-1.8-13.37-4.31-18.45-7.52l14.44-28.47c6.82,4.81,15.44,7.22,25.86,7.22c10.02,0,18.14-2.77,24.36-8.32
		c6.22-5.54,9.86-13.6,10.93-24.16c-8.02,6.82-18.51,10.23-31.48,10.23c-8.82,0-16.91-1.84-24.26-5.51
		c-7.35-3.67-13.2-8.89-17.54-15.64c-4.34-6.75-6.52-14.47-6.52-23.16c0-9.49,2.44-17.88,7.32-25.16
		c4.88-7.28,11.49-12.9,19.85-16.84c8.35-3.94,17.61-5.92,27.77-5.92C4775.48,5109.21,4791.39,5115.16,4803.02,5127.05z
		 M4772.14,5168.06c3.61-3.27,5.41-7.58,5.41-12.93c0-5.21-1.77-9.45-5.31-12.73c-3.54-3.27-8.32-4.91-14.34-4.91
		c-5.61,0-10.19,1.6-13.73,4.81c-3.54,3.21-5.31,7.55-5.31,13.03c0,5.35,1.77,9.62,5.31,12.83c3.54,3.21,8.19,4.81,13.93,4.81
		C4763.85,5172.97,4768.53,5171.33,4772.14,5168.06z"/>
	<path class="st0" d="M4933.14,5127.05c11.63,11.9,17.44,29.01,17.44,51.33c0,16.04-3.11,29.84-9.32,41.4
		c-6.22,11.56-14.97,20.35-26.26,26.37c-11.3,6.01-24.36,9.02-39.2,9.02c-7.89,0-15.44-0.9-22.66-2.71
		c-7.22-1.8-13.37-4.31-18.45-7.52l14.44-28.47c6.82,4.81,15.44,7.22,25.86,7.22c10.02,0,18.14-2.77,24.36-8.32
		c6.22-5.54,9.86-13.6,10.93-24.16c-8.02,6.82-18.51,10.23-31.48,10.23c-8.82,0-16.91-1.84-24.26-5.51
		c-7.35-3.67-13.2-8.89-17.54-15.64c-4.34-6.75-6.52-14.47-6.52-23.16c0-9.49,2.44-17.88,7.32-25.16
		c4.88-7.28,11.49-12.9,19.85-16.84c8.35-3.94,17.61-5.92,27.77-5.92C4905.6,5109.21,4921.51,5115.16,4933.14,5127.05z
		 M4902.26,5168.06c3.61-3.27,5.41-7.58,5.41-12.93c0-5.21-1.77-9.45-5.31-12.73c-3.54-3.27-8.32-4.91-14.34-4.91
		c-5.61,0-10.19,1.6-13.73,4.81c-3.54,3.21-5.31,7.55-5.31,13.03c0,5.35,1.77,9.62,5.31,12.83c3.54,3.21,8.19,4.81,13.93,4.81
		C4893.97,5172.97,4898.65,5171.33,4902.26,5168.06z"/>
	<path class="st0" d="M5022.75,5112.02v140.34h-39.7v-109.67h-26.06v-30.67H5022.75z"/>
	<path class="st0" d="M5159.69,5192.22c3.47,5.48,5.21,11.76,5.21,18.85c0,8.82-2.54,16.58-7.62,23.26
		c-5.08,6.68-12.23,11.83-21.45,15.44c-9.22,3.61-19.85,5.41-31.88,5.41s-22.66-1.8-31.88-5.41c-9.22-3.61-16.37-8.75-21.45-15.44
		c-5.08-6.68-7.62-14.44-7.62-23.26c0-7.08,1.74-13.36,5.21-18.85c3.47-5.48,8.42-10.09,14.84-13.83
		c-4.81-3.34-8.52-7.42-11.13-12.23s-3.91-10.16-3.91-16.04c0-8.15,2.34-15.34,7.02-21.55c4.68-6.21,11.26-10.99,19.75-14.33
		c8.49-3.34,18.21-5.01,29.17-5.01c10.96,0,20.68,1.67,29.17,5.01c8.49,3.34,15.07,8.12,19.75,14.33c4.68,6.22,7.02,13.4,7.02,21.55
		c0,5.88-1.3,11.23-3.91,16.04c-2.61,4.81-6.32,8.89-11.13,12.23C5151.27,5182.12,5156.21,5186.74,5159.69,5192.22z
		 M5119.29,5222.59c3.81-3.14,5.71-7.38,5.71-12.73c0-5.34-1.91-9.59-5.71-12.73c-3.81-3.14-8.92-4.71-15.34-4.71
		s-11.53,1.57-15.34,4.71c-3.81,3.14-5.71,7.39-5.71,12.73c0,5.35,1.9,9.59,5.71,12.73c3.81,3.14,8.92,4.71,15.34,4.71
		S5115.48,5225.73,5119.29,5222.59z M5091.92,5140.99c-3.08,2.61-4.61,6.25-4.61,10.93c0,4.55,1.5,8.12,4.51,10.73
		c3.01,2.61,7.05,3.91,12.13,3.91c5.08,0,9.15-1.3,12.23-3.91c3.07-2.61,4.61-6.18,4.61-10.73c0-4.68-1.54-8.32-4.61-10.93
		c-3.08-2.61-7.15-3.91-12.23-3.91C5099.01,5137.08,5095,5138.38,5091.92,5140.99z"/>
	<path class="st0" d="M5180.74,5180.59h58.54v29.27h-58.54V5180.59z"/>
	<path class="st0" d="M5351.86,5175.17c9.42,8.02,14.13,18.71,14.13,32.08c0,8.69-2.24,16.68-6.72,23.96
		c-4.48,7.29-11.3,13.1-20.45,17.44c-9.16,4.34-20.48,6.52-33.98,6.52c-9.89,0-19.68-1.2-29.37-3.61
		c-9.69-2.41-18.01-5.81-24.96-10.23l14.24-29.87c5.61,3.74,11.79,6.62,18.55,8.62c6.75,2,13.53,3.01,20.35,3.01
		c6.82,0,12.26-1.3,16.34-3.91c4.08-2.61,6.11-6.25,6.11-10.93c0-4.68-2-8.22-6.01-10.63c-4.01-2.41-11.1-3.61-21.25-3.61h-38.09
		l7.02-82h89.42v30.67h-56.54l-1.8,20.45h9.42C5327.9,5163.14,5342.44,5167.15,5351.86,5175.17z"/>
	<path class="st0" d="M5472.56,5175.17c9.42,8.02,14.13,18.71,14.13,32.08c0,8.69-2.24,16.68-6.72,23.96
		c-4.48,7.29-11.3,13.1-20.45,17.44c-9.16,4.34-20.48,6.52-33.98,6.52c-9.89,0-19.68-1.2-29.37-3.61
		c-9.69-2.41-18.01-5.81-24.96-10.23l14.24-29.87c5.61,3.74,11.79,6.62,18.55,8.62c6.75,2,13.53,3.01,20.35,3.01
		c6.82,0,12.26-1.3,16.34-3.91c4.08-2.61,6.11-6.25,6.11-10.93c0-4.68-2-8.22-6.01-10.63c-4.01-2.41-11.1-3.61-21.25-3.61h-38.09
		l7.02-82h89.42v30.67h-56.54l-1.8,20.45h9.42C5448.6,5163.14,5463.13,5167.15,5472.56,5175.17z"/>
	<path class="st0" d="M5594.15,5168.46c7.35,3.68,13.2,8.89,17.54,15.64c4.34,6.75,6.52,14.47,6.52,23.16
		c0,9.49-2.44,17.88-7.32,25.16c-4.88,7.29-11.5,12.9-19.85,16.84c-8.35,3.94-17.68,5.91-27.97,5.91
		c-20.05,0-35.89-5.95-47.52-17.84c-11.63-11.89-17.44-29-17.44-51.33c0-16.04,3.11-29.84,9.32-41.4
		c6.21-11.56,14.94-20.35,26.16-26.37s24.26-9.02,39.1-9.02c8.02,0,15.64,0.87,22.86,2.61c7.22,1.74,13.36,4.28,18.45,7.62
		l-14.44,28.47c-6.82-4.81-15.44-7.22-25.86-7.22c-10.16,0-18.38,2.81-24.66,8.42c-6.28,5.61-9.89,13.7-10.83,24.26
		c8.02-6.95,18.58-10.43,31.68-10.43C5578.72,5162.94,5586.8,5164.78,5594.15,5168.46z M5574.41,5222.09
		c3.54-3.21,5.31-7.55,5.31-13.03c0-5.34-1.77-9.62-5.31-12.83c-3.54-3.21-8.19-4.81-13.93-4.81c-5.75,0-10.43,1.64-14.03,4.91
		c-3.61,3.28-5.41,7.59-5.41,12.93c0,5.21,1.77,9.46,5.31,12.73c3.54,3.28,8.32,4.91,14.34,4.91
		C5566.29,5226.9,5570.86,5225.3,5574.41,5222.09z"/>
	<path class="st0" d="M5688.38,5112.02v140.34h-39.7v-109.67h-26.06v-30.67H5688.38z"/>
</g>
</svg>
